<svg width="60" height="60" viewBox="0 0 60 60" fill="none" xmlns="http://www.w3.org/2000/svg">
<path d="M2.79545 33.8977L3.35227 30.625L20.0682 23.4432L19.4091 27.4773L7.59091 32.2159L7.72727 32L7.64773 32.5227L7.54545 32.3068L17.8295 37.0455L17.1477 41.0795L2.79545 33.8977ZM26.7249 41.8068C25.3537 41.8068 24.1832 41.4545 23.2135 40.75C22.2438 40.0455 21.5544 39.0227 21.1453 37.6818C20.7438 36.3409 20.6984 34.7121 21.009 32.7955C21.3347 30.8561 21.9294 29.2197 22.7931 27.8864C23.6567 26.5455 24.687 25.5341 25.884 24.8523C27.0885 24.1629 28.3613 23.8182 29.7022 23.8182C30.7325 23.8182 31.5469 23.9924 32.1453 24.3409C32.7514 24.6818 33.2059 25.0947 33.509 25.5795C33.812 26.0568 34.0355 26.5076 34.1794 26.9318H34.3499L35.7931 18.2273H39.9181L36.0544 41.5H32.009L32.4749 38.75H32.2249C31.937 39.1742 31.5544 39.625 31.0772 40.1023C30.5999 40.572 30.0052 40.9735 29.2931 41.3068C28.5809 41.6402 27.7249 41.8068 26.7249 41.8068ZM28.3612 38.4318C29.24 38.4318 30.0279 38.197 30.7249 37.7273C31.4294 37.25 32.0166 36.5871 32.4862 35.7386C32.9559 34.8902 33.2855 33.9015 33.4749 32.7727C33.6643 31.6439 33.6643 30.6629 33.4749 29.8295C33.2855 28.9962 32.9181 28.3485 32.3726 27.8864C31.8272 27.4242 31.1113 27.1932 30.2249 27.1932C29.3158 27.1932 28.5166 27.4318 27.8272 27.9091C27.1453 28.3864 26.5847 29.0455 26.1453 29.8864C25.7059 30.7273 25.3953 31.6894 25.2135 32.7727C25.0317 33.8636 25.0203 34.8371 25.1794 35.6932C25.3461 36.5417 25.6908 37.2121 26.2135 37.7045C26.7438 38.1894 27.4597 38.4318 28.3612 38.4318ZM56.5606 33.8977L39.8219 41.0795L40.5037 37.0455L52.3106 32.3068L52.1628 32.5227L52.2424 32L52.356 32.2159L42.0833 27.4773L42.7424 23.4432L57.1174 30.625L56.5606 33.8977Z" fill="#FF4C29"/>
</svg>
